<?xml version="1.0" encoding="utf-8"?>
<!-- Generator: Adobe Illustrator 24.0.1, SVG Export Plug-In . SVG Version: 6.00 Build 0)  -->
<svg version="1.1" xmlns="http://www.w3.org/2000/svg" xmlns:xlink="http://www.w3.org/1999/xlink" x="0px" y="0px"
	 viewBox="0 0 144 144" style="enable-background:new 0 0 144 144;" xml:space="preserve">
<style type="text/css">
	.st0{display:none;}
	.st1{display:inline;}
	.st2{fill:#010101;}
	.st3{display:inline;fill:none;stroke:#000000;stroke-width:2.838;stroke-miterlimit:10;}
	.st4{display:inline;fill:none;stroke:#000000;stroke-width:3;stroke-miterlimit:10;}
	.st5{display:inline;fill:none;stroke:#000000;stroke-width:3;stroke-linecap:round;stroke-miterlimit:10;}
	.st6{display:inline;fill:none;stroke:#000000;stroke-width:1.9228;stroke-linecap:round;stroke-miterlimit:10;}
</style>
<g id="Layer_1" class="st0">
	<g class="st1">
		<g>
			<path class="st2" d="M83.3,53.09c-0.76,0-1.38-0.62-1.38-1.38l0-2.86c0-0.76,0.62-1.38,1.38-1.38c0.76,0,1.38,0.62,1.38,1.38
				l0,2.86C84.69,52.47,84.07,53.09,83.3,53.09z"/>
		</g>
		<g>
			<path class="st2" d="M91.04,53.09c-0.76,0-1.38-0.62-1.38-1.38l0-2.86c0-0.76,0.62-1.38,1.38-1.38c0.76,0,1.38,0.62,1.38,1.38
				l0,2.86C92.43,52.47,91.81,53.09,91.04,53.09z"/>
		</g>
		<g>
			<path class="st2" d="M98.79,53.09c-0.76,0-1.38-0.62-1.38-1.38l0-2.86c0-0.76,0.62-1.38,1.38-1.38s1.38,0.62,1.38,1.38l0,2.86
				C100.17,52.47,99.55,53.09,98.79,53.09z"/>
		</g>
		<g>
			<path class="st2" d="M87.17,56.99c-0.76,0-1.38-0.62-1.38-1.38l0-2.86c0-0.76,0.62-1.38,1.38-1.38c0.76,0,1.38,0.62,1.38,1.38
				l0,2.86C88.55,56.37,87.94,56.99,87.17,56.99z"/>
		</g>
		<g>
			<path class="st2" d="M94.91,57c-0.76,0-1.38-0.62-1.38-1.38l0-2.86c0-0.76,0.62-1.38,1.38-1.38c0.76,0,1.38,0.62,1.38,1.38
				l0,2.86C96.3,56.38,95.68,57,94.91,57z"/>
		</g>
		<g>
			<path class="st2" d="M123.61,69.15c-0.4-0.4-0.96-0.65-1.57-0.65h-8.13v-5.59h-2.12l0.01-28.9c0-6.33-5.15-11.49-11.48-11.49
				c-5.92,0-10.8,4.49-11.42,10.24c-4.46,0.97-7.8,4.96-7.8,9.69v2.94l19.88,0.01v-2.93c0.01-4.68-3.25-8.62-7.62-9.67
				c0.58-3.32,3.48-5.85,6.96-5.85c3.9,0.01,7.06,3.17,7.06,7.07l-0.01,28.89h-2.12l-0.01,5.59L20.2,68.47h-1.94
				c-1.22,0-2.21,0.99-2.21,2.21c0,0.61,0.25,1.16,0.65,1.57c0.4,0.4,0.95,0.65,1.57,0.65h1.94v8.73
				c-0.01,13.18,10.26,24.01,23.22,24.9v5.41h8.66l0.01-5.35l36.13,0.02v5.34l8.66,0.01l0.01-5.41
				c12.96-0.88,23.23-11.7,23.23-24.88l0.01-8.73h1.94c1.22,0,2.21-0.99,2.21-2.21C124.26,70.11,124.01,69.55,123.61,69.15z
				 M96.36,40.98l-10.62-0.01c0.65-2.32,2.79-4.02,5.31-4.02C93.57,36.96,95.71,38.67,96.36,40.98z M115.69,72.93l-0.01,8.72
				c-0.01,11.32-9.21,20.52-20.53,20.52l-50.02-0.02c-11.32-0.01-20.52-9.21-20.52-20.53V72.9l45.54,0.02l22.92,0.01L115.69,72.93
				L115.69,72.93z"/>
			<polygon class="st2" points="120.11,68.51 113.92,68.51 113.92,68.5 			"/>
			<polygon class="st2" points="115.69,72.93 115.69,72.93 93.08,72.92 			"/>
		</g>
	</g>
</g>
<g id="Layer_2" class="st0">
	<g id="XMLID_651_" class="st1">
		<g id="XMLID_614_">
			<path id="XMLID_1332_" d="M79.85,122.38H50.56c-15.02,0-27.24-12.19-27.24-27.18V56.74c0-1.25,1.01-2.26,2.26-2.26h79.25
				c1.25,0,2.26,1.01,2.26,2.26v38.46C107.09,110.19,94.87,122.38,79.85,122.38z M27.84,59v36.2c0,12.49,10.19,22.66,22.71,22.66
				h29.29c12.52,0,22.71-10.16,22.71-22.66V59H27.84z"/>
		</g>
		<g id="XMLID_653_">
			<path id="XMLID_1331_" d="M105.03,110.56h-3.93v-4.52h3.93c7.22,0,13.1-5.86,13.1-13.07V65.45h-13.31v-4.52h15.57
				c1.25,0,2.26,1.01,2.26,2.26v29.78C122.66,102.67,114.75,110.56,105.03,110.56z"/>
		</g>
		<g id="XMLID_652_">
			<path id="XMLID_1328_" d="M99.16,130.82H30.88c-5.91,0-10.72-4.8-10.72-10.69c0-1.25,1.01-2.26,2.26-2.26h85.19
				c1.25,0,2.26,1.01,2.26,2.26C109.88,126.02,105.07,130.82,99.16,130.82z M25.12,122.38c0.91,2.29,3.15,3.92,5.76,3.92h68.28
				c2.61,0,4.86-1.63,5.76-3.92H25.12z"/>
		</g>
		<g id="XMLID_654_">
			<path id="XMLID_1327_" d="M44.6,48.73c-0.49,0-0.98-0.16-1.4-0.48c-0.98-0.77-1.16-2.19-0.38-3.17c1.71-2.18,0.93-4.35-0.59-8
				c-1.66-3.96-3.72-8.89,0.71-13.67c0.85-0.92,2.28-0.97,3.2-0.13c0.92,0.85,0.98,2.28,0.13,3.19c-2.34,2.53-1.52,4.9,0.14,8.87
				c1.52,3.64,3.41,8.16-0.02,12.53C45.94,48.44,45.27,48.73,44.6,48.73z"/>
		</g>
		<g id="XMLID_655_">
			<path id="XMLID_1326_" d="M63.75,48.73c-0.49,0-0.98-0.16-1.4-0.48c-0.98-0.77-1.16-2.19-0.38-3.17c1.71-2.18,0.93-4.35-0.59-8
				c-1.66-3.96-3.72-8.89,0.71-13.67c0.85-0.92,2.28-0.97,3.2-0.13c0.92,0.85,0.98,2.28,0.13,3.19c-2.34,2.53-1.52,4.9,0.14,8.87
				c1.52,3.64,3.41,8.16-0.02,12.53C65.09,48.44,64.42,48.73,63.75,48.73z"/>
		</g>
		<g id="XMLID_661_">
			<path id="XMLID_1325_" d="M82.9,48.73c-0.49,0-0.98-0.16-1.4-0.48c-0.98-0.77-1.16-2.19-0.38-3.17c1.71-2.18,0.93-4.35-0.59-8
				c-1.66-3.96-3.72-8.89,0.71-13.67c0.85-0.92,2.28-0.97,3.2-0.13c0.92,0.85,0.98,2.28,0.13,3.19c-2.34,2.53-1.52,4.9,0.14,8.87
				c1.52,3.64,3.41,8.16-0.02,12.53C84.24,48.44,83.57,48.73,82.9,48.73z"/>
		</g>
	</g>
</g>
<g id="Layer_3" class="st0">
	<g class="st1">
		<path d="M100.76,51.14c0-15.67-13.16-28.42-29.35-28.42c-16.18,0-29.35,12.75-29.35,28.42c0,15.67,13.16,28.42,29.35,28.42
			C87.59,79.55,100.76,66.81,100.76,51.14z M45.59,51.14c0-13.79,11.58-25.01,25.82-25.01c14.24,0,25.82,11.22,25.82,25.01
			c0,13.79-11.58,25.01-25.82,25.01C57.17,76.14,45.59,64.92,45.59,51.14z"/>
		<path d="M107.08,51.14c0-0.94-0.79-1.71-1.76-1.71c-0.97,0-1.76,0.76-1.76,1.71c0,17.16-14.42,31.13-32.14,31.13
			c-17.72,0-32.14-13.96-32.14-31.13c0-0.94-0.79-1.71-1.76-1.71c-0.97,0-1.76,0.76-1.76,1.71c0,18.47,15.05,33.6,33.9,34.49v41.49
			H55.34c-0.97,0-1.76,0.76-1.76,1.71c0,0.94,0.79,1.71,1.76,1.71h32.14c0.97,0,1.76-0.76,1.76-1.71c0-0.94-0.79-1.71-1.76-1.71
			H73.17V85.63C92.02,84.74,107.08,69.61,107.08,51.14z"/>
		<path d="M78.5,59.54c0.37,0,0.74-0.11,1.06-0.34c0.78-0.57,0.94-1.63,0.35-2.39L65.73,38.5c-0.58-0.75-1.69-0.91-2.47-0.34
			c-0.78,0.57-0.94,1.63-0.35,2.39l14.18,18.31C77.44,59.3,77.97,59.54,78.5,59.54z"/>
		<path d="M75.69,64.46c0.37,0,0.74-0.11,1.06-0.34c0.78-0.56,0.94-1.63,0.35-2.39L67,48.7c-0.58-0.75-1.69-0.91-2.47-0.34
			c-0.78,0.56-0.94,1.63-0.35,2.39l10.09,13.03C74.62,64.22,75.15,64.46,75.69,64.46z"/>
	</g>
</g>
<g id="Layer_4" class="st0">
	<g class="st1">
		<path d="M70.7,29.38c-0.16,0.07-0.31,0.17-0.44,0.27l-7.4,4.48l0,0c-2.46,1.46-2.48,1.47-5.66,3.43l-10.08,6.1
			c-1.09,0.66-1.59,1.93-1.25,3.16c0.34,1.23,1.43,2.05,2.7,2.05h6.98c-0.39,1.28-0.86,2.28-1.32,2.68
			c-0.36,0.32-0.58,0.77-0.59,1.26c-0.01,0.24-0.09,5.95,3.24,10.9c2.81,4.17,3.8,11.5,0.09,16.86
			c-8.65,12.49-10.85,44.1-10.94,45.44c-0.03,0.47,0.13,0.94,0.46,1.29c0.32,0.35,0.78,0.54,1.25,0.54h47.32
			c0.47,0,0.93-0.2,1.25-0.54c0.32-0.35,0.49-0.81,0.46-1.29c-0.09-1.34-2.29-32.95-10.94-45.44c-3.71-5.35-2.72-12.68,0.09-16.86
			c3.34-4.96,3.25-10.66,3.24-10.9c-0.01-0.48-0.22-0.94-0.59-1.26c-0.46-0.4-0.93-1.4-1.32-2.68h6.98c1.28,0,2.36-0.83,2.71-2.05
			c0.34-1.23-0.16-2.5-1.25-3.16l-10.05-6.09c-3.2-1.97-3.22-1.98-5.69-3.44c0,0,0,0,0,0l-5.21-3.16c1.35-1.11,2.44-2.78,2.44-5.41
			c0-3.02-2.27-6.15-6.06-6.15c-1.75,0-3.42,0.93-4.49,2.5c-1.04,1.54-1.28,3.42-0.64,5.03c0.35,0.88,1.35,1.31,2.23,0.96
			c0.88-0.35,1.31-1.35,0.96-2.23c-0.22-0.56-0.11-1.24,0.29-1.84c0.42-0.61,1.05-1,1.65-1c1.93,0,2.63,1.62,2.63,2.72
			C73.75,27.47,72.98,28.43,70.7,29.38z M56.56,42.29c0,1-0.09,2.08-0.25,3.15h-5.5l5.76-3.49C56.56,42.06,56.56,42.17,56.56,42.29z
			 M92.02,45.44h-5.5c-0.16-1.07-0.25-2.15-0.25-3.15c0-0.12,0-0.23,0-0.33L92.02,45.44z M78.68,47.37c0.92-3.27,1.49-6.65,1.8-8.92
			l2.31,1.4c-0.06,0.46-0.04,0.89-0.01,1.39c0.02,0.28,0.04,0.61,0.04,1.04c0,1.24,0.16,3.19,0.56,5.2c0,0.01,0,0.02,0.01,0.03
			c0.45,2.24,1.18,4.55,2.33,5.98c-0.08,1.44-0.5,5.12-2.64,8.29c-3.45,5.12-4.64,14.12-0.06,20.73
			c6.98,10.07,9.58,34.93,10.19,41.88h-43.6c0.61-6.95,3.21-31.81,10.19-41.88c4.58-6.61,3.38-15.61-0.06-20.73
			c-2.14-3.18-2.56-6.86-2.64-8.29c1.14-1.43,1.88-3.74,2.33-5.98c0-0.01,0-0.02,0.01-0.03c0.4-2,0.56-3.96,0.56-5.2
			c0-0.44,0.02-0.77,0.04-1.04c0.04-0.5,0.05-0.93-0.01-1.39l2.31-1.4c0.31,2.27,0.88,5.65,1.8,8.92c0.02,0.18,0.07,0.35,0.14,0.5
			c1.44,4.88,3.69,9.38,7.12,9.38c3.43,0,5.68-4.49,7.12-9.37C78.61,47.73,78.66,47.55,78.68,47.37z M68.19,48.87h6.45
			c-1.13,3.12-2.36,4.96-3.22,4.96C70.55,53.83,69.32,51.99,68.19,48.87z M77.28,36.52c-0.34,3.34-0.91,6.37-1.58,8.92h-8.57
			c-0.67-2.55-1.24-5.58-1.58-8.92l5.87-3.55L77.28,36.52z"/>
	</g>
</g>
<g id="Layer_5" class="st0">
	<path class="st3" d="M115.64,67.3L103.4,35.82l-0.89-0.38c-9.82-4.19-29.89-4.03-31.1-4.01c-1.21-0.01-21.28-0.17-31.1,4.01
		l-0.89,0.38L27.17,67.3c-3.63,0.38-7.9,2.17-9.58,8.09v34.05h8.81v12.38h15.58v-12.38h29.43h29.43v12.38h15.58v-12.38h8.81V75.39
		C123.55,69.46,119.28,67.67,115.64,67.3z M42.99,39.32c9.37-3.49,28.2-3.3,28.39-3.3l0.03,0l0.03,0c0.19,0,19.02-0.19,28.39,3.3
		L110.8,67.5c-0.67,0.12-1.07,0.23-1.07,0.23c-8.34-2.38-20.85-3.32-20.85-3.32l-2.47-1.96l-15-0.68l-15,0.68l-2.47,1.96
		c0,0-12.51,0.94-20.85,3.32c0,0-0.4-0.11-1.07-0.23L42.99,39.32z M28.29,88.5c-4.44,0-8.04-3.6-8.04-8.04
		c0-4.44,3.6-8.04,8.04-8.04c4.44,0,8.04,3.6,8.04,8.04C36.33,84.9,32.73,88.5,28.29,88.5z M98.92,94.82H71.41H43.9l-2.04-14.36
		c10.85-6,29.56-5.41,29.56-5.41s18.7-0.6,29.56,5.41L98.92,94.82z M114.53,88.5c-4.44,0-8.04-3.6-8.04-8.04
		c0-4.44,3.6-8.04,8.04-8.04c4.44,0,8.04,3.6,8.04,8.04C122.58,84.9,118.97,88.5,114.53,88.5z"/>
</g>
<g id="Layer_6" class="st0">
	<g id="XMLID_27_" class="st1">
		<g id="XMLID_21_">
			<path id="XMLID_181_" d="M81.68,130.74c-15.7,0-28.47-12.77-28.47-28.47V62.92c0-7.88,6.41-14.29,14.29-14.29h28.35
				c7.88,0,14.29,6.41,14.29,14.29v39.35C110.15,117.97,97.38,130.74,81.68,130.74z M67.5,53.32c-5.29,0-9.6,4.31-9.6,9.6v39.35
				c0,13.11,10.67,23.78,23.78,23.78s23.78-10.67,23.78-23.78V62.92c0-5.29-4.31-9.6-9.6-9.6H67.5z"/>
		</g>
		<g id="XMLID_23_">
			<path id="XMLID_180_" d="M81.68,62.19c-1.29,0-2.34-1.05-2.34-2.34v-8.87c0-1.29,1.05-2.34,2.34-2.34c1.29,0,2.34,1.05,2.34,2.34
				v8.87C84.02,61.15,82.98,62.19,81.68,62.19z"/>
		</g>
		<g id="XMLID_24_">
			<path id="XMLID_179_" d="M107.8,81.34H55.56c-1.29,0-2.34-1.05-2.34-2.34c0-1.29,1.05-2.34,2.34-2.34h52.24
				c1.29,0,2.34,1.05,2.34,2.34C110.15,80.29,109.1,81.34,107.8,81.34z"/>
		</g>
		<g id="XMLID_22_">
			<path id="XMLID_176_" d="M81.68,73.36c-3.72,0-6.75-3.03-6.75-6.75v-2.34c0-3.72,3.03-6.75,6.75-6.75c3.72,0,6.75,3.03,6.75,6.75
				v2.34C88.43,70.33,85.4,73.36,81.68,73.36z M81.68,62.19c-1.14,0-2.06,0.93-2.06,2.07v2.34c0,1.14,0.93,2.06,2.06,2.06
				c1.14,0,2.07-0.93,2.07-2.06v-2.34C83.75,63.12,82.82,62.19,81.68,62.19z"/>
		</g>
		<g id="XMLID_26_">
			<path id="XMLID_175_" d="M81.68,81.34c-1.29,0-2.34-1.05-2.34-2.34v-7.98c0-1.29,1.05-2.34,2.34-2.34c1.29,0,2.34,1.05,2.34,2.34
				V79C84.02,80.29,82.98,81.34,81.68,81.34z"/>
		</g>
		<g id="XMLID_25_">
			<path id="XMLID_172_" d="M85.95,53.32h-8.54c-1.29,0-2.34-1.05-2.34-2.34v-3.92c0-2.7,2.2-4.9,4.9-4.9h3.43
				c2.7,0,4.9,2.2,4.9,4.9v3.92C88.29,52.27,87.24,53.32,85.95,53.32z M79.76,48.63h3.85v-1.58c0-0.12-0.09-0.21-0.21-0.21h-3.43
				c-0.12,0-0.21,0.09-0.21,0.21V48.63z"/>
		</g>
		<g id="XMLID_28_">
			<path id="XMLID_171_" d="M35.02,84.35c-1.29,0-2.34-1.05-2.34-2.34V44.5c0-12.13,9.86-21.99,21.99-21.99h7.37
				c12.13,0,21.99,9.87,21.99,21.99c0,1.29-1.05,2.34-2.34,2.34c-1.29,0-2.34-1.05-2.34-2.34c0-9.54-7.76-17.3-17.3-17.3h-7.37
				c-9.54,0-17.3,7.76-17.3,17.3v37.51C37.36,83.3,36.31,84.35,35.02,84.35z"/>
		</g>
	</g>
</g>
<g id="Layer_7">
	<g id="XMLID_670_">
		<g id="XMLID_662_">
			<path id="XMLID_1322_" d="M87.63,126.9H47.65c-5.64,0-10.23-4.59-10.23-10.23V45.17c0-1.25,1.02-2.27,2.27-2.27h55.91
				c1.25,0,2.27,1.02,2.27,2.27v71.49C97.86,122.31,93.27,126.9,87.63,126.9z M41.95,47.44v69.22c0,3.14,2.56,5.7,5.7,5.7h39.98
				c3.14,0,5.7-2.56,5.7-5.7V47.44H41.95z"/>
		</g>
		<g id="XMLID_664_">
			<path id="XMLID_1321_" d="M95.59,117.57c-1.25,0-2.27-1.02-2.27-2.27s1.02-2.27,2.27-2.27c8.67,0,15.73-7.06,15.73-15.73V54.57
				H95.59c-1.25,0-2.27-1.02-2.27-2.27c0-1.25,1.02-2.27,2.27-2.27h18c1.25,0,2.27,1.02,2.27,2.27V97.3
				C115.86,108.47,106.77,117.57,95.59,117.57z"/>
		</g>
		<g id="XMLID_669_">
			<path id="XMLID_1318_" d="M39.03,47.44c-0.82,0-1.57-0.44-1.97-1.15c-1.37-2.42-2.09-5.18-2.09-7.98
				c0-8.97,7.3-16.27,16.27-16.27c1.99,0,3.92,0.35,5.75,1.05c3.14-3.03,7.33-4.74,11.74-4.74c7.67,0,14.22,5.04,16.26,12.25
				c6.91,0.24,12.89,6.95,12.89,14.58c0,1.25-1.02,2.27-2.27,2.27L39.03,47.44z M51.23,26.58c-6.47,0-11.73,5.26-11.73,11.73
				c0,1.59,0.32,3.15,0.94,4.6l52.62,0c-0.94-4.02-4.25-7.78-8.46-7.78c-0.36,0-0.74,0.02-1.14,0.07c-1.22,0.16-2.33-0.69-2.52-1.9
				c-0.96-6.04-6.09-10.42-12.21-10.42c-3.65,0-7.09,1.6-9.45,4.39c-0.68,0.8-1.82,1.03-2.76,0.56C54.86,27,53.08,26.58,51.23,26.58
				z"/>
		</g>
		<g id="XMLID_663_">
			<g id="XMLID_666_">
				<path id="XMLID_1317_" d="M53.89,104.48c-1.25,0-2.27-1.02-2.27-2.27V62.22c0-1.25,1.02-2.27,2.27-2.27s2.27,1.02,2.27,2.27
					v39.99C56.16,103.47,55.14,104.48,53.89,104.48z"/>
			</g>
			<g id="XMLID_667_">
				<path id="XMLID_1316_" d="M67.64,104.48c-1.25,0-2.27-1.02-2.27-2.27V62.22c0-1.25,1.02-2.27,2.27-2.27s2.27,1.02,2.27,2.27
					v39.99C69.91,103.47,68.89,104.48,67.64,104.48z"/>
			</g>
			<g id="XMLID_668_">
				<path id="XMLID_1315_" d="M81.39,104.48c-1.25,0-2.27-1.02-2.27-2.27V62.22c0-1.25,1.02-2.27,2.27-2.27s2.27,1.02,2.27,2.27
					v39.99C83.65,103.47,82.64,104.48,81.39,104.48z"/>
			</g>
		</g>
	</g>
</g>
<g id="Layer_8" class="st0">
	<g class="st1">
		<g id="XMLID_1157_">
			<path id="XMLID_1312_" d="M94.64,111.55H48.91c-0.81,0-1.56-0.39-2.03-1.04c-0.47-0.65-0.6-1.49-0.34-2.26l0.11-0.33
				c1.18-3.52-0.39-7.41-3.65-9.05c-15.92-8-25.81-24.03-25.81-41.84V44.2c0-1.38,1.12-2.5,2.5-2.5h103.43c1.38,0,2.5,1.12,2.5,2.5
				v12.82c0,17.5-9.64,33.41-25.17,41.51c-3.5,1.82-5,5.93-3.5,9.55c0.32,0.77,0.23,1.65-0.23,2.35
				C96.26,111.13,95.48,111.55,94.64,111.55z M52,106.54h39.44c-0.55-5.01,1.99-9.98,6.7-12.44c13.87-7.24,22.48-21.44,22.48-37.07
				V46.71H22.2v10.32c0,15.9,8.83,30.22,23.05,37.36C49.81,96.68,52.4,101.58,52,106.54z"/>
		</g>
		<g id="XMLID_1159_">
			<path id="XMLID_1309_" d="M123.13,59.53H19.69c-1.38,0-2.5-1.12-2.5-2.5c0-1.38,1.12-2.5,2.5-2.5h103.43c1.38,0,2.5,1.12,2.5,2.5
				C125.63,58.41,124.51,59.53,123.13,59.53z"/>
		</g>
	</g>
</g>
<g id="Layer_9" class="st0">
	<path id="XMLID_30_" class="st4" d="M100.07,52.74l-57.5-0.41C29.28,52.23,18.55,62.94,18.6,76.25l0,0
		c0.05,13.31,10.86,24.17,24.15,24.26l57.5,0.41c13.29,0.1,24.02-10.61,23.97-23.92v0C124.17,63.69,113.36,52.83,100.07,52.74z
		 M42.5,75.28l0.01,2.28c0,0.71-0.57,1.27-1.27,1.27l-4.08-0.03c-0.39,0-0.76-0.19-1.01-0.5l-0.89-1.14
		c-0.36-0.47-0.37-1.12-0.01-1.58l0.89-1.13c0.24-0.31,0.61-0.49,1-0.48l4.08,0.03C41.93,74,42.5,74.57,42.5,75.28z M31.25,72.86
		l-0.02-4.09c0-0.71,0.57-1.27,1.27-1.27l2.27,0.02c0.71,0.01,1.28,0.58,1.28,1.29l0.02,4.09c0,0.39-0.18,0.76-0.49,1l-1.13,0.88
		c-0.46,0.36-1.11,0.35-1.57-0.01l-1.14-0.9C31.43,73.62,31.25,73.25,31.25,72.86z M24.84,77.43l-0.01-2.28
		c0-0.71,0.57-1.27,1.27-1.27l4.08,0.03c0.39,0,0.76,0.19,1.01,0.5l0.89,1.14c0.36,0.47,0.37,1.12,0.01,1.58l-0.89,1.13
		c-0.24,0.31-0.61,0.49-1,0.48l-4.08-0.03C25.42,78.71,24.85,78.13,24.84,77.43z M34.84,85.21l-2.27-0.02
		c-0.71-0.01-1.28-0.58-1.28-1.29l-0.02-4.09c0-0.39,0.18-0.76,0.49-1l1.13-0.88c0.46-0.36,1.11-0.35,1.57,0.01l1.14,0.9
		c0.31,0.24,0.49,0.62,0.49,1.01l0.02,4.09C36.12,84.64,35.55,85.21,34.84,85.21z M112.49,82.45c0.01,1.51-1.21,2.72-2.72,2.71
		c-1.51-0.01-2.73-1.24-2.74-2.75c-0.01-1.51,1.21-2.72,2.72-2.71C111.26,79.71,112.49,80.94,112.49,82.45z M101.49,76.84
		c-0.01-1.51,1.21-2.72,2.72-2.71c1.51,0.01,2.73,1.24,2.74,2.75c0.01,1.51-1.21,2.72-2.72,2.71
		C102.72,79.58,101.5,78.35,101.49,76.84z M95.24,61.51l0.11,30.57c0.01,1.54-1.23,2.77-2.77,2.76l-42.22-0.3
		c-1.53-0.01-2.78-1.27-2.79-2.8l-0.11-30.57c-0.01-1.54,1.23-2.77,2.77-2.76l42.22,0.3C93.99,58.72,95.24,59.97,95.24,61.51z
		 M107,71.34c-0.01-1.51,1.21-2.72,2.72-2.71c1.51,0.01,2.73,1.24,2.74,2.75c0.01,1.51-1.21,2.72-2.72,2.71
		C108.23,74.09,107,72.85,107,71.34z M118,76.96c0.01,1.51-1.21,2.72-2.72,2.71c-1.51-0.01-2.73-1.24-2.74-2.75
		c-0.01-1.51,1.21-2.72,2.72-2.71C116.77,74.22,117.99,75.45,118,76.96z"/>
</g>
<g id="Layer_10" class="st0">
	<g class="st1">
		<g>
			<g>
				<path class="st2" d="M125.27,86.01c0-4.91-3.99-8.9-8.9-8.9H60.8c0.72-1.25,1.13-2.7,1.13-4.25c0-4.72-3.84-8.57-8.56-8.57
					h-8.55c-4.73,0-8.57,3.85-8.57,8.57c0,1.54,0.41,2.99,1.13,4.25H35.9V60.75c0-2.44-0.95-4.75-2.69-6.48
					c-1.73-1.74-4.03-2.69-6.48-2.69c-5.05,0-9.17,4.12-9.17,9.17v46.21h7.15v4.53h8.45v-4.53h76.52v4.53h8.45v-4.53h6.61V90.59H124
					C124.83,89.22,125.27,87.65,125.27,86.01z M40.57,72.86c0-2.34,1.91-4.25,4.25-4.25h8.55c2.34,0,4.25,1.91,4.25,4.25
					c0,2.34-1.9,4.25-4.25,4.25h-8.55C42.48,77.11,40.57,75.2,40.57,72.86z M21.87,60.75c0-2.68,2.18-4.86,4.86-4.86
					c1.3,0,2.51,0.51,3.43,1.42c0.92,0.92,1.42,2.14,1.42,3.43v29.85h-9.71V60.75z M120.41,102.64H21.87v-7.73h98.54V102.64z
					 M119.61,89.25c-0.86,0.87-2.02,1.34-3.24,1.34H35.9v-9.17h80.47c2.53,0,4.59,2.06,4.59,4.59
					C120.95,87.23,120.48,88.39,119.61,89.25z"/>
			</g>
		</g>
	</g>
	<path class="st5" d="M56.89,52.8h6.17c1.15,0,1.65,1.44,0.76,2.16l-5.77,4.62c-0.38,0.31-0.17,0.93,0.32,0.93h8.14"/>
	<path class="st6" d="M65.84,42.72h3.95c0.73,0,1.06,0.92,0.49,1.38l-3.7,2.96c-0.25,0.2-0.11,0.59,0.21,0.59H72"/>
</g>
</svg>
