<?xml version="1.0" encoding="utf-8"?>
<!-- Generator: Adobe Illustrator 24.0.3, SVG Export Plug-In . SVG Version: 6.00 Build 0)  -->
<svg version="1.1" id="Layer_1" xmlns="http://www.w3.org/2000/svg" xmlns:xlink="http://www.w3.org/1999/xlink" x="0px" y="0px"
	 viewBox="0 0 356.57 281.57" style="enable-background:new 0 0 356.57 281.57;" xml:space="preserve">
<path d="M59.03,121.3c0,0.35,0.07,0.59,0.22,0.7c0.14,0.11,0.44,0.22,0.89,0.31l1.73,0.39v0.96h-7.32v-0.96l1.78-0.39
	c0.48-0.1,0.79-0.21,0.94-0.34c0.14-0.13,0.22-0.37,0.22-0.72V92.34c0-0.35-0.07-0.59-0.22-0.72c-0.14-0.13-0.46-0.24-0.94-0.34
	l-1.78-0.39v-0.96h12.33l9.92,21.44l8.86-21.44h12.72v0.96l-1.78,0.39c-0.48,0.1-0.79,0.21-0.94,0.34
	c-0.14,0.13-0.22,0.37-0.22,0.72v28.91c0,0.35,0.07,0.59,0.22,0.72c0.14,0.13,0.46,0.24,0.94,0.34l1.78,0.39v0.96H82.78v-0.96
	l1.73-0.39c0.45-0.1,0.75-0.2,0.89-0.31c0.14-0.11,0.22-0.34,0.22-0.7V94.03l-12.24,29.63h-1.45L59.03,95.28V121.3z"/>
<path d="M104.87,91.62c-0.14-0.13-0.46-0.24-0.94-0.34l-1.78-0.39v-0.96h15.71v0.96l-1.78,0.39c-0.48,0.1-0.79,0.21-0.94,0.34
	c-0.14,0.13-0.22,0.37-0.22,0.72v28.91c0,0.35,0.07,0.59,0.22,0.72c0.14,0.13,0.46,0.24,0.94,0.34l1.78,0.39v0.96h-15.71v-0.96
	l1.78-0.39c0.48-0.1,0.79-0.21,0.94-0.34c0.14-0.13,0.22-0.37,0.22-0.72V92.34C105.08,91.99,105.01,91.75,104.87,91.62z"/>
<path d="M141.05,109.23c-0.34-0.63-0.88-1.04-1.61-1.25c-0.74-0.21-1.96-0.31-3.66-0.31h-1.4v13.54c0,0.35,0.07,0.59,0.22,0.72
	c0.14,0.13,0.46,0.24,0.94,0.34l2.07,0.43v0.96h-16v-0.96l1.78-0.39c0.48-0.1,0.79-0.21,0.94-0.34c0.14-0.13,0.22-0.37,0.22-0.72
	V92.34c0-0.35-0.07-0.59-0.22-0.72c-0.14-0.13-0.46-0.24-0.94-0.34l-1.78-0.39v-0.96h14.16c4.3,0,7.72,0.28,10.26,0.84
	c2.54,0.56,4.38,1.49,5.54,2.77c1.16,1.28,1.73,3.04,1.73,5.25c0,2.47-0.74,4.38-2.22,5.71c-1.48,1.33-3.87,2.24-7.18,2.72
	c1.9,0.13,3.41,0.43,4.55,0.92c1.14,0.48,2.03,1.25,2.67,2.29c0.64,1.04,1.14,2.48,1.49,4.31l0.53,2.89
	c0.26,1.38,0.44,2.31,0.55,2.79c0.11,0.48,0.27,0.85,0.48,1.11c0.21,0.26,0.54,0.39,0.99,0.39c0.8,0,1.48-0.59,2.02-1.78l1.01,0.87
	c-0.45,0.93-1.13,1.69-2.05,2.26c-0.92,0.58-2.4,0.87-4.46,0.87c-2.06,0-3.68-0.23-4.87-0.67c-1.19-0.45-2.12-1.24-2.79-2.38
	c-0.67-1.14-1.19-2.79-1.54-4.94l-0.58-3.61C141.68,110.95,141.38,109.85,141.05,109.23z M134.37,106.22h1.83
	c1.86,0,3.3-0.26,4.31-0.77c1.01-0.51,1.71-1.3,2.1-2.36c0.39-1.06,0.58-2.49,0.58-4.29c0-1.8-0.19-3.23-0.58-4.29
	c-0.39-1.06-1.08-1.85-2.1-2.36c-1.01-0.51-2.45-0.77-4.31-0.77h-1.83V106.22z"/>
<path d="M178.94,122.69l2.07-0.19c0.45-0.06,0.67-0.24,0.67-0.53c0-0.16-0.05-0.35-0.14-0.58l-3.18-7.03h-11.18l-2.89,7.03
	c-0.1,0.23-0.14,0.42-0.14,0.58c0,0.29,0.22,0.47,0.67,0.53l2.07,0.19v0.96h-7.32v-0.96l1.78-0.19c0.39-0.03,0.66-0.13,0.82-0.29
	c0.16-0.16,0.34-0.45,0.53-0.87l13.34-31.94h1.54l14.12,31.94c0.19,0.42,0.37,0.71,0.53,0.87c0.16,0.16,0.43,0.26,0.82,0.29
	l1.78,0.19v0.96h-15.9V122.69z M177.73,112.91l-5.2-11.51l-4.77,11.51H177.73z"/>
<path d="M199.68,91.62c-0.14-0.13-0.46-0.24-0.94-0.34l-1.78-0.39v-0.96h13.34l15.51,19.56v-17.2c0-0.35-0.07-0.59-0.22-0.7
	c-0.14-0.11-0.44-0.22-0.89-0.31l-1.73-0.39v-0.96h7.32v0.96l-1.78,0.39c-0.48,0.1-0.79,0.21-0.94,0.34
	c-0.14,0.13-0.22,0.37-0.22,0.72v31.32h-1.73l-24.18-30.59v28.23c0,0.35,0.07,0.59,0.22,0.7c0.14,0.11,0.44,0.22,0.89,0.31
	l1.73,0.39v0.96h-7.32v-0.96l1.78-0.39c0.48-0.1,0.79-0.21,0.94-0.34c0.14-0.13,0.22-0.37,0.22-0.72V92.34
	C199.9,91.99,199.82,91.75,199.68,91.62z"/>
<path d="M233.86,122.31c0.48-0.1,0.79-0.21,0.94-0.34c0.14-0.13,0.22-0.37,0.22-0.72V92.34c0-0.35-0.07-0.59-0.22-0.72
	c-0.14-0.13-0.46-0.24-0.94-0.34l-1.78-0.39v-0.96h14.74c6.75,0,11.88,1.27,15.42,3.81c3.53,2.54,5.3,6.89,5.3,13.06
	c0,6.17-1.77,10.52-5.3,13.06c-3.53,2.54-8.67,3.81-15.42,3.81h-14.74v-0.96L233.86,122.31z M244.84,122.21h1.98
	c2.67,0,4.72-0.47,6.17-1.42c1.45-0.95,2.46-2.51,3.04-4.7c0.58-2.18,0.87-5.28,0.87-9.3c0-4.01-0.29-7.11-0.87-9.3
	c-0.58-2.18-1.59-3.75-3.04-4.7c-1.45-0.95-3.5-1.42-6.17-1.42h-1.98V122.21z"/>
<path d="M285.7,122.69l2.07-0.19c0.45-0.06,0.67-0.24,0.67-0.53c0-0.16-0.05-0.35-0.14-0.58l-3.18-7.03h-11.18l-2.89,7.03
	c-0.1,0.23-0.14,0.42-0.14,0.58c0,0.29,0.22,0.47,0.67,0.53l2.07,0.19v0.96h-7.32v-0.96l1.78-0.19c0.39-0.03,0.66-0.13,0.82-0.29
	c0.16-0.16,0.34-0.45,0.53-0.87l13.34-31.94h1.54l14.12,31.94c0.19,0.42,0.37,0.71,0.53,0.87c0.16,0.16,0.43,0.26,0.82,0.29
	l1.78,0.19v0.96h-15.9V122.69z M284.49,112.91l-5.2-11.51l-4.77,11.51H284.49z"/>
<path d="M56.33,180.12c0.48-0.1,0.79-0.21,0.94-0.34c0.14-0.13,0.22-0.37,0.22-0.72v-28.91c0-0.35-0.07-0.59-0.22-0.72
	c-0.14-0.13-0.46-0.24-0.94-0.34l-1.78-0.39v-0.96h14.74c6.74,0,11.88,1.27,15.42,3.81c3.53,2.54,5.3,6.89,5.3,13.06
	s-1.77,10.52-5.3,13.06c-3.53,2.54-8.67,3.81-15.42,3.81H54.54v-0.96L56.33,180.12z M67.31,180.02h1.98c2.67,0,4.72-0.47,6.17-1.42
	s2.46-2.51,3.04-4.7s0.87-5.28,0.87-9.3c0-4.01-0.29-7.11-0.87-9.3c-0.58-2.18-1.59-3.75-3.04-4.7c-1.45-0.95-3.5-1.42-6.17-1.42
	h-1.98V180.02z"/>
<path d="M94.41,149.43c-0.14-0.13-0.46-0.24-0.94-0.34l-1.78-0.39v-0.96h15.71v0.96l-1.78,0.39c-0.48,0.1-0.79,0.21-0.94,0.34
	c-0.14,0.13-0.22,0.37-0.22,0.72v28.91c0,0.35,0.07,0.59,0.22,0.72c0.14,0.13,0.46,0.24,0.94,0.34l1.78,0.38v0.96H91.69v-0.96
	l1.78-0.38c0.48-0.1,0.79-0.21,0.94-0.34c0.14-0.13,0.22-0.37,0.22-0.72v-28.91C94.63,149.8,94.56,149.56,94.41,149.43z"/>
<path d="M112.93,180.12c0.48-0.1,0.79-0.21,0.94-0.34c0.14-0.13,0.22-0.37,0.22-0.72v-28.91c0-0.35-0.07-0.59-0.22-0.72
	c-0.14-0.13-0.46-0.24-0.94-0.34l-1.78-0.39v-0.96h29.68v9.39h-1.2c-0.67-2.09-1.31-3.66-1.9-4.72c-0.59-1.06-1.42-1.86-2.48-2.41
	c-1.06-0.55-2.55-0.82-4.48-0.82h-6.84v14.31h12.43v1.45h-12.43v15.08h7.32c1.89,0,3.39-0.29,4.48-0.87
	c1.09-0.58,1.95-1.41,2.58-2.5c0.63-1.09,1.28-2.68,1.95-4.77h1.25v9.59h-30.35v-0.96L112.93,180.12z"/>
<path d="M168.22,179.78c0.14,0.13,0.46,0.24,0.94,0.34l1.78,0.38v0.96h-15.71v-0.96l1.78-0.38c0.48-0.1,0.79-0.21,0.94-0.34
	c0.14-0.13,0.22-0.37,0.22-0.72v-29.97h-1.11c-1.96,0-3.48,0.32-4.55,0.96c-1.08,0.64-1.9,1.48-2.46,2.5
	c-0.56,1.03-1.26,2.67-2.1,4.91h-1.06v-9.73h32.38v9.73h-1.06c-0.84-2.25-1.53-3.89-2.1-4.91c-0.56-1.03-1.38-1.86-2.46-2.5
	c-1.08-0.64-2.59-0.96-4.55-0.96H168v29.97C168,179.41,168.07,179.65,168.22,179.78z"/>
<path d="M198.76,167.04c-0.34-0.63-0.88-1.04-1.61-1.25c-0.74-0.21-1.96-0.31-3.66-0.31h-1.4v13.54c0,0.35,0.07,0.59,0.22,0.72
	c0.14,0.13,0.46,0.24,0.94,0.34l2.07,0.43v0.96h-16v-0.96l1.78-0.38c0.48-0.1,0.79-0.21,0.94-0.34c0.14-0.13,0.22-0.37,0.22-0.72
	v-28.91c0-0.35-0.07-0.59-0.22-0.72c-0.14-0.13-0.46-0.24-0.94-0.34l-1.78-0.39v-0.96h14.16c4.3,0,7.72,0.28,10.26,0.84
	c2.54,0.56,4.38,1.49,5.54,2.77c1.16,1.28,1.73,3.04,1.73,5.25c0,2.47-0.74,4.38-2.22,5.71c-1.48,1.33-3.87,2.24-7.18,2.72
	c1.89,0.13,3.41,0.43,4.55,0.92c1.14,0.48,2.03,1.24,2.67,2.29s1.14,2.48,1.49,4.31l0.53,2.89c0.26,1.38,0.44,2.31,0.55,2.79
	c0.11,0.48,0.27,0.85,0.48,1.11c0.21,0.26,0.54,0.39,0.99,0.39c0.8,0,1.48-0.59,2.02-1.78l1.01,0.87c-0.45,0.93-1.13,1.69-2.05,2.26
	c-0.92,0.58-2.4,0.87-4.46,0.87s-3.68-0.22-4.87-0.67c-1.19-0.45-2.12-1.25-2.79-2.38c-0.67-1.14-1.19-2.79-1.54-4.94l-0.58-3.61
	C199.4,168.77,199.1,167.67,198.76,167.04z M192.09,164.03h1.83c1.86,0,3.3-0.26,4.31-0.77s1.71-1.3,2.1-2.36
	c0.39-1.06,0.58-2.49,0.58-4.29s-0.19-3.23-0.58-4.29c-0.38-1.06-1.08-1.85-2.1-2.36c-1.01-0.51-2.45-0.77-4.31-0.77h-1.83V164.03z"
	/>
<path d="M218.13,149.43c-0.14-0.13-0.46-0.24-0.94-0.34l-1.78-0.39v-0.96h15.71v0.96l-1.78,0.39c-0.48,0.1-0.79,0.21-0.94,0.34
	c-0.14,0.13-0.22,0.37-0.22,0.72v28.91c0,0.35,0.07,0.59,0.22,0.72c0.14,0.13,0.46,0.24,0.94,0.34l1.78,0.38v0.96h-15.71v-0.96
	l1.78-0.38c0.48-0.1,0.79-0.21,0.94-0.34c0.14-0.13,0.22-0.37,0.22-0.72v-28.91C218.35,149.8,218.27,149.56,218.13,149.43z"/>
<path d="M259.27,178.77c1.43-0.58,2.79-1.38,4.07-2.41l0.96,1.06c-1.41,1.32-3.25,2.42-5.52,3.3c-2.26,0.88-4.76,1.33-7.49,1.33
	c-5.4,0-9.83-1.42-13.3-4.26s-5.2-7.4-5.2-13.66c0-5.81,1.73-10.09,5.18-12.84c3.45-2.75,7.97-4.12,13.56-4.12
	c2.25,0,4.46,0.21,6.65,0.63c2.18,0.42,3.9,0.93,5.15,1.54l-0.67,8.29h-1.35c-0.9-2.73-2.11-4.92-3.64-6.58
	c-1.53-1.65-3.56-2.48-6.09-2.48c-2.92,0-5.02,1.2-6.29,3.59c-1.27,2.39-1.9,5.97-1.9,10.72c0,5.62,0.82,9.82,2.46,12.6
	c1.64,2.78,4.51,4.17,8.62,4.17C256.24,179.64,257.84,179.35,259.27,178.77z"/>
<path d="M277.99,179.11c0,0.35,0.07,0.59,0.22,0.7c0.14,0.11,0.44,0.22,0.89,0.31l1.73,0.38v0.96h-15.61v-0.96l1.78-0.38
	c0.48-0.1,0.79-0.21,0.94-0.34c0.14-0.13,0.22-0.37,0.22-0.72v-28.91c0-0.35-0.07-0.59-0.22-0.72c-0.14-0.13-0.46-0.24-0.94-0.34
	l-1.78-0.39v-0.96h15.61v0.96l-1.73,0.39c-0.45,0.06-0.75,0.16-0.89,0.29c-0.14,0.13-0.22,0.37-0.22,0.72v13.39h12.62v-13.39
	c0-0.35-0.07-0.59-0.22-0.72c-0.14-0.13-0.44-0.22-0.89-0.29l-1.73-0.39v-0.96h15.61v0.96l-1.78,0.39c-0.48,0.1-0.79,0.21-0.94,0.34
	c-0.14,0.13-0.22,0.37-0.22,0.72v28.91c0,0.35,0.07,0.59,0.22,0.72c0.14,0.13,0.46,0.24,0.94,0.34l1.78,0.38v0.96h-15.61v-0.96
	l1.73-0.38c0.45-0.1,0.75-0.2,0.89-0.31c0.14-0.11,0.22-0.34,0.22-0.7v-14.17h-12.62V179.11z"/>
</svg>
